<svg width="200" height="200" viewBox="0 0 200 200" fill="none" xmlns="http://www.w3.org/2000/svg">
<circle cx="100" cy="100" r="100" fill="#00A6FB"/>
<path d="M95.8333 119C98.138 119 100 120.899 100 123.25V138.125H91.6667V123.25C91.6667 120.899 93.5286 119 95.8333 119ZM79.1667 127.5C79.1667 125.149 81.0286 123.25 83.3333 123.25C85.638 123.25 87.5 125.149 87.5 127.5V138.125H79.1667V127.5ZM104.167 127.5C104.167 125.149 106.029 123.25 108.333 123.25C110.638 123.25 112.5 125.149 112.5 127.5V140.25C112.5 142.601 110.638 144.5 108.333 144.5C106.029 144.5 104.167 142.601 104.167 140.25V127.5ZM116.667 136C116.667 133.649 118.529 131.75 120.833 131.75C123.138 131.75 125 133.649 125 136V144.5C125 146.851 123.138 148.75 120.833 148.75C118.529 148.75 116.667 146.851 116.667 144.5V136ZM104.167 147.688V147.608C105.391 148.325 106.81 148.75 108.333 148.75C110.052 148.75 111.641 148.219 112.969 147.316C114.102 150.623 117.201 153 120.833 153C122.357 153 123.776 152.588 125 151.858V153C125 159.946 121.732 166.122 116.667 170V182.75C116.667 185.101 114.805 187 112.5 187H91.6667C89.362 187 87.5 185.101 87.5 182.75V172.338C85.2474 171.288 83.1771 169.841 81.3932 168.021L79.8828 166.48C76.7578 163.293 75 158.963 75 154.461V150.875C75 146.187 78.737 142.375 83.3333 142.375H94.7917C97.6693 142.375 100 144.752 100 147.688C100 150.623 97.6693 153 94.7917 153H87.5C86.3542 153 85.4167 153.956 85.4167 155.125C85.4167 156.294 86.3542 157.25 87.5 157.25H94.7917C99.974 157.25 104.167 152.973 104.167 147.688Z" fill="#FFD43B"/>
<g clip-path="url(#clip0_22_9)">
<path d="M72.0277 88.1272C73.6508 89.7503 76.1787 89.8451 77.6845 88.3393C79.1904 86.8335 79.0956 84.3056 77.4724 82.6824L58.3982 63.6082C57.5912 62.8012 57.5435 61.5285 58.2921 60.7798C59.0408 60.0312 60.3136 60.0789 61.1206 60.8859L77.2603 77.0256C78.8834 78.6487 81.4113 78.7435 82.9171 77.2377C84.4229 75.7319 84.3281 73.204 82.705 71.5809L57.7618 46.6377C57.6243 46.5001 57.4775 46.3534 57.3315 46.2243L67.7605 46.3595C70.5156 46.3922 72.6129 44.1848 72.4473 41.4159C72.2817 38.647 69.9021 36.3865 67.1378 36.3446L47.7633 36.0947C40.3277 35.9924 33.3529 38.7671 28.2825 43.8375L26.6491 45.4709C18.3799 53.7401 18.9023 67.6701 27.8158 76.5836L46.89 95.6578C48.5132 97.281 51.0411 97.3758 52.5469 95.87C54.0527 94.3642 53.9579 91.8363 52.3348 90.2131L42.064 79.9424C41.2571 79.1354 41.2093 77.8626 41.958 77.114C42.7066 76.3653 43.9794 76.4131 44.7864 77.22L60.9261 93.3598C62.5493 94.9829 65.0772 95.0777 66.583 93.5719C68.0888 92.0661 67.994 89.5382 66.3708 87.915L50.2311 71.7753C49.4241 70.9683 49.3764 69.6955 50.1251 68.9469C50.8737 68.1982 52.1465 68.246 52.9535 69.053L72.0277 88.1272Z" fill="#FFD43B"/>
</g>
<path d="M125.429 84.9994C123.456 86.9726 123.456 90.169 125.429 92.1423C127.402 94.1156 130.599 94.1157 132.572 92.1425L148.661 76.0536C148.741 77.4911 149.331 78.9018 150.429 80.0001C152.688 82.2591 156.277 82.3663 158.661 80.3217C158.733 81.7682 159.331 83.1878 160.429 84.2861C162.795 86.6522 166.634 86.6523 169 84.2863L177.572 75.7151C183.884 69.4027 183.884 59.1706 177.571 52.8579L167.473 42.7593C163.883 39.1699 159.008 37.1519 153.928 37.1429C149.856 37.1428 145.963 38.7498 143.088 41.6247L138.999 45.7139C137.098 47.6157 136.732 50.4639 137.883 52.7407L146.651 48.2052C147.642 47.6963 148.865 48.0803 149.374 49.0714C149.883 50.0624 149.499 51.2857 148.508 51.7946L140.607 55.8747L140.616 55.8836L116.678 68.3741C114.187 69.6687 113.232 72.7133 114.527 75.1866C115.822 77.6598 118.866 78.6153 121.348 77.3296L145.919 64.5088L125.429 84.9994Z" fill="#FFD43B"/>
<g filter="url(#filter0_d_22_9)">
<ellipse cx="100" cy="100.5" rx="10" ry="9.5" fill="white"/>
<path d="M100 90.5C105.775 90.5 110.5 94.9533 110.5 100.5C110.5 106.047 105.775 110.5 100 110.5C94.2255 110.5 89.5 106.047 89.5 100.5C89.5 94.9533 94.2255 90.5 100 90.5Z" stroke="url(#paint0_linear_22_9)"/>
</g>
<defs>
<filter id="filter0_d_22_9" x="78" y="79" width="44" height="43" filterUnits="userSpaceOnUse" color-interpolation-filters="sRGB">
<feFlood flood-opacity="0" result="BackgroundImageFix"/>
<feColorMatrix in="SourceAlpha" type="matrix" values="0 0 0 0 0 0 0 0 0 0 0 0 0 0 0 0 0 0 127 0" result="hardAlpha"/>
<feMorphology radius="1" operator="dilate" in="SourceAlpha" result="effect1_dropShadow_22_9"/>
<feOffset/>
<feGaussianBlur stdDeviation="5"/>
<feComposite in2="hardAlpha" operator="out"/>
<feColorMatrix type="matrix" values="0 0 0 0 0 0 0 0 0 0 0 0 0 0 0 0 0 0 0.25 0"/>
<feBlend mode="normal" in2="BackgroundImageFix" result="effect1_dropShadow_22_9"/>
<feBlend mode="normal" in="SourceGraphic" in2="effect1_dropShadow_22_9" result="shape"/>
</filter>
<linearGradient id="paint0_linear_22_9" x1="100" y1="91" x2="100" y2="110" gradientUnits="userSpaceOnUse">
<stop stop-color="#F6D365"/>
<stop offset="1" stop-color="#FDA085"/>
</linearGradient>
<clipPath id="clip0_22_9">
<rect width="77" height="83" fill="white" transform="translate(19 22)"/>
</clipPath>
</defs>
</svg>
