<svg width="640" height="640" viewBox="0 0 640 640" fill="none" xmlns="http://www.w3.org/2000/svg">
<circle cx="370" cy="329" r="100" fill="#00A6FB"/>
<path d="M336.286 312.36C337.509 313.583 339.549 313.517 340.853 312.213C342.156 310.91 342.222 308.869 341 307.647L326.637 293.284C326.029 292.676 326.062 291.649 326.71 291C327.358 290.352 328.386 290.319 328.993 290.927L341.147 303.08C342.369 304.303 344.41 304.237 345.713 302.933C347.017 301.63 347.083 299.589 345.86 298.367L327.078 279.584C326.974 279.481 326.864 279.37 326.753 279.274L335.186 278.796C337.414 278.667 339.236 276.762 339.258 274.53C339.28 272.299 337.481 270.603 335.246 270.725L319.58 271.615C313.567 271.951 307.766 274.59 303.376 278.979L301.962 280.393C294.804 287.552 294.441 298.797 301.153 305.509L315.516 319.872C316.739 321.094 318.779 321.028 320.083 319.725C321.387 318.421 321.452 316.381 320.23 315.158L312.496 307.424C311.888 306.817 311.921 305.789 312.57 305.141C313.218 304.493 314.245 304.46 314.853 305.068L327.006 317.221C328.228 318.443 330.269 318.377 331.573 317.074C332.876 315.77 332.942 313.73 331.72 312.507L319.566 300.354C318.959 299.746 318.992 298.719 319.64 298.071C320.288 297.423 321.315 297.39 321.923 297.997L336.286 312.36Z" fill="#FFD43B"/>
<path d="M370 366C371.659 366 373 367.341 373 369V379.5H367V369C367 367.341 368.341 366 370 366ZM358 372C358 370.341 359.341 369 361 369C362.659 369 364 370.341 364 372V379.5H358V372ZM376 372C376 370.341 377.341 369 379 369C380.659 369 382 370.341 382 372V381C382 382.659 380.659 384 379 384C377.341 384 376 382.659 376 381V372ZM385 378C385 376.341 386.341 375 388 375C389.659 375 391 376.341 391 378V384C391 385.659 389.659 387 388 387C386.341 387 385 385.659 385 384V378ZM376 386.25V386.194C376.881 386.7 377.903 387 379 387C380.237 387 381.381 386.625 382.338 385.988C383.153 388.322 385.384 390 388 390C389.097 390 390.119 389.709 391 389.194V390C391 394.903 388.647 399.263 385 402V411C385 412.659 383.659 414 382 414H367C365.341 414 364 412.659 364 411V403.65C362.378 402.909 360.888 401.888 359.603 400.603L358.516 399.516C356.266 397.266 355 394.209 355 391.031V388.5C355 385.191 357.691 382.5 361 382.5H369.25C371.322 382.5 373 384.178 373 386.25C373 388.322 371.322 390 369.25 390H364C363.175 390 362.5 390.675 362.5 391.5C362.5 392.325 363.175 393 364 393H369.25C372.981 393 376 389.981 376 386.25Z" fill="#FFD43B"/>
<circle cx="373.5" cy="350.5" r="2.5" fill="white"/>
<g clip-path="url(#clip0_20_14)">
<path d="M409.926 308.563C408.46 310.028 408.46 312.402 409.926 313.867C411.391 315.332 413.764 315.332 415.229 313.867L427.174 301.921C427.234 302.988 427.672 304.036 428.487 304.851C430.164 306.528 432.829 306.608 434.599 305.09C434.652 306.164 435.096 307.218 435.912 308.033C437.668 309.79 440.519 309.79 442.276 308.033L448.64 301.669C453.326 296.982 453.326 289.385 448.64 284.698L441.142 277.201C438.477 274.536 434.858 273.038 431.086 273.031C428.063 273.031 425.172 274.224 423.038 276.359L420.002 279.395C418.59 280.807 418.318 282.922 419.173 284.612L425.683 281.245C426.419 280.867 427.327 281.152 427.705 281.888C428.083 282.624 427.798 283.532 427.062 283.91L421.195 286.939L421.202 286.946L403.429 296.22C401.579 297.181 400.87 299.442 401.831 301.278C402.793 303.114 405.053 303.823 406.896 302.869L425.139 293.349L409.926 308.563Z" fill="#FFD43B"/>
</g>
<circle cx="373.5" cy="328.5" r="11.5" fill="white"/>
<circle cx="391.5" cy="319.5" r="2.5" fill="white"/>
<circle cx="355.5" cy="319.5" r="2.5" fill="white"/>
<defs>
<clipPath id="clip0_20_14">
<rect width="60" height="60" fill="white" transform="translate(385 297.426) rotate(-45)"/>
</clipPath>
</defs>
</svg>
